 <svg  version="1.0" xmlns="http://www.w3.org/2000/svg"  width="300.000000pt" height="201.000000pt" viewBox="0 0 300.000000 201.000000"  preserveAspectRatio="xMidYMid meet">  <g transform="translate(0.000000,201.000000) scale(0.100000,-0.100000)" fill="#169818" stroke="none"> <path d="M465 1766 c-45 -20 -92 -73 -110 -124 -11 -35 -15 -91 -15 -243 0 -214 -8 -260 -56 -310 -14 -15 -39 -30 -55 -33 -30 -6 -30 -6 -27 -68 3 -58 4 -62 32 -69 37 -10 65 -36 85 -79 12 -28 17 -83 21 -260 5 -211 6 -228 29 -273 14 -28 41 -61 64 -78 37 -27 47 -29 129 -29 l88 0 0 55 0 54 -62 3 c-59 3 -63 5 -82 38 -19 32 -21 57 -26 276 l-5 241 -29 41 c-16 23 -31 42 -35 42 -3 1 -17 10 -30 21 l-24 20 42 35 c74 63 75 70 81 334 7 298 12 310 121 310 l49 0 0 55 0 55 -77 0 c-43 -1 -91 -7 -108 -14z"/> <path d="M2380 1725 l0 -55 48 0 c114 0 122 -18 122 -288 0 -108 5 -217 11 -242 12 -55 42 -100 86 -130 l33 -23 -30 -22 c-86 -64 -100 -113 -100 -365 0 -268 -8 -290 -112 -290 l-58 0 0 -55 0 -55 86 0 c101 0 148 20 188 80 35 54 46 130 46 334 0 154 3 187 19 221 22 48 49 73 87 84 27 7 29 11 32 68 3 59 2 61 -25 68 -33 8 -81 50 -96 85 -6 14 -14 124 -17 250 -7 248 -13 276 -73 338 -38 39 -80 52 -174 52 l-73 0 0 -55z"/> <path d="M982 1550 c1 -87 2 -90 7 -32 5 55 9 65 36 82 61 41 85 18 85 -80 0 -42 3 -59 11 -54 13 8 2 142 -13 162 -14 16 -43 15 -78 -3 -26 -14 -30 -13 -39 3 -8 12 -10 -9 -9 -78z"/> <path d="M1232 1617 c-16 -17 -22 -36 -22 -70 0 -66 23 -87 95 -87 30 0 55 5 55 10 0 6 -21 10 -46 10 -51 0 -84 14 -84 35 0 12 15 15 65 15 l65 0 0 39 c0 30 -6 44 -22 55 -33 23 -81 20 -106 -7z m92 -3 c10 -4 16 -18 16 -35 0 -28 -1 -29 -55 -29 -52 0 -55 1 -55 25 0 36 48 56 94 39z"/> <path d="M1588 1634 c-5 -4 -8 -14 -8 -23 0 -25 -44 -121 -54 -118 -5 2 -13 10 -16 18 -4 8 -14 29 -23 47 -9 19 -17 42 -17 53 0 10 -5 19 -11 19 -7 0 -9 -10 -6 -27 9 -45 57 -143 70 -143 11 0 31 34 67 111 12 27 11 76 -2 63z"/> <path d="M1712 1624 c-18 -13 -22 -25 -22 -73 0 -75 16 -91 93 -91 31 0 57 5 57 10 0 6 -24 10 -53 10 -52 0 -77 12 -77 37 0 8 21 13 63 15 60 3 62 4 65 32 7 60 -72 98 -126 60z m101 -25 c20 -32 1 -49 -52 -49 -55 0 -69 15 -44 49 11 17 23 21 50 19 20 -2 41 -10 46 -19z"/> <path d="M1928 1634 c-12 -11 -10 -162 2 -169 6 -4 10 14 10 47 0 48 3 55 34 81 41 32 61 34 78 7 15 -23 28 -26 28 -7 0 20 -33 47 -56 47 -11 0 -29 -7 -40 -15 -25 -19 -42 -19 -46 1 -2 9 -6 12 -10 8z"/> <path d="M826 1330 c-46 -14 -69 -44 -126 -161 -70 -146 -70 -161 4 -312 36 -74 68 -124 84 -135 37 -24 222 -31 241 -9 7 9 10 25 6 37 -6 18 -14 20 -95 20 -49 0 -96 3 -105 6 -18 7 -125 213 -125 241 0 21 86 199 108 226 12 14 32 17 107 17 57 0 95 4 103 12 18 18 14 46 -7 58 -23 12 -154 12 -195 0z"/> <path d="M1220 1321 c-28 -15 -45 -39 -92 -132 -78 -156 -79 -188 -4 -337 30 -59 62 -114 72 -123 29 -25 70 -31 108 -15 30 12 42 30 95 138 80 163 80 173 0 329 -75 148 -112 177 -179 140z m118 -168 c29 -60 52 -121 52 -137 0 -34 -97 -236 -117 -243 -22 -8 -40 14 -89 110 -61 121 -61 143 5 275 70 139 80 139 149 -5z"/> <path d="M1547 1325 c-10 -9 -17 -23 -17 -30 0 -17 31 -35 59 -35 21 0 21 -4 21 -245 l0 -245 -34 0 c-39 0 -57 -29 -35 -57 18 -21 204 -15 240 9 32 20 138 227 145 282 5 36 -2 56 -58 166 -79 156 -89 164 -212 168 -76 3 -96 1 -109 -13z m258 -175 c30 -60 55 -120 55 -132 0 -33 -97 -226 -119 -238 -11 -5 -29 -10 -40 -10 -21 0 -21 4 -21 245 l0 245 35 0 c34 0 36 -2 90 -110z"/> <path d="M2184 1330 c-31 -12 -65 -62 -118 -172 -62 -129 -61 -149 9 -291 76 -155 81 -158 208 -155 91 3 102 5 105 22 7 33 -25 46 -109 46 -54 0 -80 4 -88 14 -24 29 -92 179 -84 187 4 4 42 9 83 11 63 3 75 6 78 21 7 35 -16 47 -94 47 -41 0 -74 3 -74 8 0 4 21 48 46 99 52 102 52 103 161 103 63 0 72 2 78 20 12 39 -11 50 -99 49 -44 0 -91 -4 -102 -9z"/> <path d="M1232 578 c3 -7 14 -14 26 -16 21 -3 22 -8 22 -103 0 -99 0 -99 -25 -99 -14 0 -25 -4 -25 -10 0 -5 25 -10 55 -10 30 0 55 5 55 10 0 6 -9 10 -20 10 -18 0 -20 8 -22 113 l-3 112 -34 3 c-24 3 -32 0 -29 -10z"/> <path d="M1049 499 c44 -8 64 -24 58 -44 -2 -5 -30 -12 -63 -15 l-59 -5 -3 -42 c-4 -49 8 -56 89 -49 l54 4 -3 69 c-1 37 -4 74 -7 81 -3 8 -23 12 -57 11 l-53 -1 44 -9z m42 -79 c27 -15 23 -36 -10 -50 -41 -16 -85 -10 -90 14 -7 37 55 59 100 36z"/> <path d="M1460 491 c-5 -11 -10 -42 -10 -70 0 -57 22 -81 75 -81 54 0 75 24 75 83 -1 71 -15 87 -78 87 -40 0 -53 -4 -62 -19z m101 -1 c15 -8 19 -21 19 -58 0 -56 -12 -72 -55 -72 -41 0 -55 16 -55 64 0 63 40 93 91 66z"/> <path d="M1690 425 c0 -90 13 -112 16 -27 1 26 2 52 3 58 0 6 17 18 37 27 26 13 40 15 55 7 16 -9 19 -22 19 -80 0 -40 4 -70 10 -70 13 0 13 111 0 144 -8 22 -16 26 -48 26 -21 0 -43 -5 -50 -12 -8 -8 -15 -8 -27 2 -13 11 -15 3 -15 -75z"/> <path d="M1936 488 c-9 -12 -16 -42 -16 -65 0 -62 24 -83 95 -83 30 0 55 5 55 10 0 6 -24 10 -54 10 -36 0 -58 5 -66 15 -20 24 -2 34 65 37 54 3 60 5 63 26 2 13 -4 34 -12 48 -14 20 -25 24 -66 24 -39 0 -52 -4 -64 -22z m105 -6 c38 -31 19 -52 -46 -52 -48 0 -55 3 -55 19 0 22 35 51 61 51 9 0 27 -8 40 -18z"/> </g> </svg> 